<svg xmlns="http://www.w3.org/2000/svg" viewBox="0 0 1200 900" width="1200" height="900" role="img">
  <defs>
    <linearGradient id="g_celestiapenthousec_sky" x1="0" y1="0" x2="0" y2="1">
      <stop offset="0" stop-color="hsl(255 35% 32%)"/>
      <stop offset="1" stop-color="hsl(30 55% 74%)"/>
    </linearGradient>
    <radialGradient id="g_celestiapenthousec_sun" cx="0.52" cy="0.42" r="0.5">
      <stop offset="0" stop-color="hsl(28 80% 72% / 0.95)"/>
      <stop offset="0.4" stop-color="hsl(28 80% 72% / 0.35)"/>
      <stop offset="1" stop-color="hsl(28 80% 72% / 0)"/>
    </radialGradient>
    <linearGradient id="g_celestiapenthousec_vig" x1="0" y1="0" x2="0" y2="1">
      <stop offset="0" stop-color="hsl(0 0% 0% / 0.18)"/>
      <stop offset="0.35" stop-color="hsl(0 0% 0% / 0)"/>
      <stop offset="1" stop-color="hsl(225 40% 6% / 0.35)"/>
    </linearGradient>
    <pattern id="g_celestiapenthousec_grain" width="4" height="4" patternUnits="userSpaceOnUse">
      <rect width="4" height="4" fill="hsl(0 0% 100% / 0)"/>
      <circle cx="1" cy="1" r="0.5" fill="hsl(0 0% 100% / 0.05)"/>
    </pattern>
  </defs>

  <rect width="1200" height="900" fill="url(#g_celestiapenthousec_sky)"/>
  <rect width="1200" height="900" fill="url(#g_celestiapenthousec_sun)"/>
  <circle cx="621.43" cy="378" r="46" fill="hsl(28 80% 80% / 0.9)"/>

  <path d="M0,900 L0,470.72 L0,451.19 L200,414.6 L400,479.75 L600,505.39 L800,478.32 L1000,433.23 L1200,424.77 L1200,470.72 L1200,900 Z" fill="hsl(225 24% 30% / 0.9)"/><path d="M0,900 L0,533.09 L0,493.89 L200,502.91 L400,563.19 L600,553.09 L800,510.47 L1000,478.57 L1200,496.94 L1200,533.09 L1200,900 Z" fill="hsl(225 24% 25% / 0.9)"/><path d="M0,900 L0,574.31 L0,556.05 L200,572.08 L400,592.01 L600,566.11 L800,540.46 L1000,563.24 L1200,569.88 L1200,574.31 L1200,900 Z" fill="hsl(225 24% 20% / 0.9)"/>
  
  <g><rect x="525.58" y="242.23" width="183.13" height="405.77" fill="hsl(225 22% 12%)"/><rect x="539.58" y="256.23" width="28.28" height="29.53" rx="2" fill="hsl(45 90% 72% / 0.92)"/><rect x="539.58" y="299.76" width="28.28" height="29.53" rx="2" fill="hsl(45 90% 72% / 0.92)"/><rect x="539.58" y="343.29" width="28.28" height="29.53" rx="2" fill="hsl(45 90% 72% / 0.92)"/><rect x="539.58" y="386.82" width="28.28" height="29.53" rx="2" fill="hsl(45 90% 72% / 0.92)"/><rect x="539.58" y="430.35" width="28.28" height="29.53" rx="2" fill="hsl(45 90% 72% / 0.92)"/><rect x="539.58" y="473.88" width="28.28" height="29.53" rx="2" fill="hsl(45 90% 72% / 0.92)"/><rect x="539.58" y="517.41" width="28.28" height="29.53" rx="2" fill="hsl(45 90% 72% / 0.92)"/><rect x="539.58" y="560.94" width="28.28" height="29.53" rx="2" fill="hsl(45 90% 72% / 0.92)"/><rect x="539.58" y="604.47" width="28.28" height="29.53" rx="2" fill="hsl(45 90% 72% / 0.92)"/><rect x="581.87" y="256.23" width="28.28" height="29.53" rx="2" fill="hsl(45 90% 72% / 0.92)"/><rect x="581.87" y="299.76" width="28.28" height="29.53" rx="2" fill="hsl(45 90% 72% / 0.92)"/><rect x="581.87" y="343.29" width="28.28" height="29.53" rx="2" fill="hsl(45 90% 72% / 0.92)"/><rect x="581.87" y="386.82" width="28.28" height="29.53" rx="2" fill="hsl(45 90% 72% / 0.92)"/><rect x="581.87" y="430.35" width="28.28" height="29.53" rx="2" fill="hsl(45 90% 72% / 0.92)"/><rect x="581.87" y="473.88" width="28.28" height="29.53" rx="2" fill="hsl(45 90% 72% / 0.92)"/><rect x="581.87" y="517.41" width="28.28" height="29.53" rx="2" fill="hsl(45 90% 72% / 0.92)"/><rect x="581.87" y="560.94" width="28.28" height="29.53" rx="2" fill="hsl(45 90% 72% / 0.92)"/><rect x="581.87" y="604.47" width="28.28" height="29.53" rx="2" fill="hsl(45 90% 72% / 0.92)"/><rect x="624.15" y="256.23" width="28.28" height="29.53" rx="2" fill="hsl(45 90% 72% / 0.92)"/><rect x="624.15" y="299.76" width="28.28" height="29.53" rx="2" fill="hsl(45 90% 72% / 0.92)"/><rect x="624.15" y="343.29" width="28.28" height="29.53" rx="2" fill="hsl(45 90% 72% / 0.92)"/><rect x="624.15" y="386.82" width="28.28" height="29.53" rx="2" fill="hsl(45 90% 72% / 0.92)"/><rect x="624.15" y="430.35" width="28.28" height="29.53" rx="2" fill="hsl(45 90% 72% / 0.92)"/><rect x="624.15" y="473.88" width="28.28" height="29.53" rx="2" fill="hsl(45 90% 72% / 0.92)"/><rect x="624.15" y="517.41" width="28.28" height="29.53" rx="2" fill="hsl(45 90% 72% / 0.92)"/><rect x="624.15" y="560.94" width="28.28" height="29.53" rx="2" fill="hsl(45 90% 72% / 0.92)"/><rect x="624.15" y="604.47" width="28.28" height="29.53" rx="2" fill="hsl(45 90% 72% / 0.92)"/><rect x="666.43" y="256.23" width="28.28" height="29.53" rx="2" fill="hsl(45 90% 72% / 0.92)"/><rect x="666.43" y="299.76" width="28.28" height="29.53" rx="2" fill="hsl(45 90% 72% / 0.92)"/><rect x="666.43" y="343.29" width="28.28" height="29.53" rx="2" fill="hsl(45 90% 72% / 0.92)"/><rect x="666.43" y="386.82" width="28.28" height="29.53" rx="2" fill="hsl(45 90% 72% / 0.92)"/><rect x="666.43" y="430.35" width="28.28" height="29.53" rx="2" fill="hsl(45 90% 72% / 0.92)"/><rect x="666.43" y="473.88" width="28.28" height="29.53" rx="2" fill="hsl(45 90% 72% / 0.92)"/><rect x="666.43" y="517.41" width="28.28" height="29.53" rx="2" fill="hsl(45 90% 72% / 0.92)"/><rect x="666.43" y="560.94" width="28.28" height="29.53" rx="2" fill="hsl(45 90% 72% / 0.92)"/><rect x="666.43" y="604.47" width="28.28" height="29.53" rx="2" fill="hsl(45 90% 72% / 0.92)"/><rect x="395.58" y="418" width="110" height="230" fill="hsl(225 20% 10%)"/><rect x="409.58" y="432" width="18" height="22" rx="2" fill="hsl(45 90% 72% / 0.92)"/><rect x="409.58" y="468" width="18" height="22" rx="2" fill="hsl(45 90% 72% / 0.92)"/><rect x="409.58" y="504" width="18" height="22" rx="2" fill="hsl(45 90% 72% / 0.92)"/><rect x="409.58" y="540" width="18" height="22" rx="2" fill="hsl(45 90% 72% / 0.92)"/><rect x="409.58" y="576" width="18" height="22" rx="2" fill="hsl(45 90% 72% / 0.92)"/><rect x="409.58" y="612" width="18" height="22" rx="2" fill="hsl(45 90% 72% / 0.92)"/><rect x="441.58" y="432" width="18" height="22" rx="2" fill="hsl(45 90% 72% / 0.92)"/><rect x="441.58" y="468" width="18" height="22" rx="2" fill="hsl(45 90% 72% / 0.92)"/><rect x="441.58" y="504" width="18" height="22" rx="2" fill="hsl(45 90% 72% / 0.92)"/><rect x="441.58" y="540" width="18" height="22" rx="2" fill="hsl(45 90% 72% / 0.92)"/><rect x="441.58" y="576" width="18" height="22" rx="2" fill="hsl(45 90% 72% / 0.92)"/><rect x="441.58" y="612" width="18" height="22" rx="2" fill="hsl(45 90% 72% / 0.92)"/><rect x="473.58" y="432" width="18" height="22" rx="2" fill="hsl(45 90% 72% / 0.92)"/><rect x="473.58" y="468" width="18" height="22" rx="2" fill="hsl(45 90% 72% / 0.92)"/><rect x="473.58" y="504" width="18" height="22" rx="2" fill="hsl(45 90% 72% / 0.92)"/><rect x="473.58" y="540" width="18" height="22" rx="2" fill="hsl(45 90% 72% / 0.92)"/><rect x="473.58" y="576" width="18" height="22" rx="2" fill="hsl(45 90% 72% / 0.92)"/><rect x="473.58" y="612" width="18" height="22" rx="2" fill="hsl(45 90% 72% / 0.92)"/><rect x="728.71" y="368" width="120" height="280" fill="hsl(225 20% 11%)"/><rect x="742.71" y="382" width="21.33" height="24" rx="2" fill="hsl(45 90% 72% / 0.92)"/><rect x="742.71" y="420" width="21.33" height="24" rx="2" fill="hsl(45 90% 72% / 0.92)"/><rect x="742.71" y="458" width="21.33" height="24" rx="2" fill="hsl(45 90% 72% / 0.92)"/><rect x="742.71" y="496" width="21.33" height="24" rx="2" fill="hsl(45 90% 72% / 0.92)"/><rect x="742.71" y="534" width="21.33" height="24" rx="2" fill="hsl(45 90% 72% / 0.92)"/><rect x="742.71" y="572" width="21.33" height="24" rx="2" fill="hsl(45 90% 72% / 0.92)"/><rect x="742.71" y="610" width="21.33" height="24" rx="2" fill="hsl(45 90% 72% / 0.92)"/><rect x="778.05" y="382" width="21.33" height="24" rx="2" fill="hsl(45 90% 72% / 0.92)"/><rect x="778.05" y="420" width="21.33" height="24" rx="2" fill="hsl(45 90% 72% / 0.92)"/><rect x="778.05" y="458" width="21.33" height="24" rx="2" fill="hsl(45 90% 72% / 0.92)"/><rect x="778.05" y="496" width="21.33" height="24" rx="2" fill="hsl(45 90% 72% / 0.92)"/><rect x="778.05" y="534" width="21.33" height="24" rx="2" fill="hsl(45 90% 72% / 0.92)"/><rect x="778.05" y="572" width="21.33" height="24" rx="2" fill="hsl(45 90% 72% / 0.92)"/><rect x="778.05" y="610" width="21.33" height="24" rx="2" fill="hsl(45 90% 72% / 0.92)"/><rect x="813.38" y="382" width="21.33" height="24" rx="2" fill="hsl(45 90% 72% / 0.92)"/><rect x="813.38" y="420" width="21.33" height="24" rx="2" fill="hsl(45 90% 72% / 0.92)"/><rect x="813.38" y="458" width="21.33" height="24" rx="2" fill="hsl(45 90% 72% / 0.92)"/><rect x="813.38" y="496" width="21.33" height="24" rx="2" fill="hsl(45 90% 72% / 0.92)"/><rect x="813.38" y="534" width="21.33" height="24" rx="2" fill="hsl(45 90% 72% / 0.92)"/><rect x="813.38" y="572" width="21.33" height="24" rx="2" fill="hsl(45 90% 72% / 0.92)"/><rect x="813.38" y="610" width="21.33" height="24" rx="2" fill="hsl(45 90% 72% / 0.92)"/></g>
  <g>
    <rect x="117.47" y="619.28" width="6.13" height="34.72" fill="hsl(225 30% 14%)"/>
    <circle cx="120.538111589849" cy="607.03" r="26.55" fill="hsl(225 34% 18%)"/>
    <circle cx="102.16" cy="619.28" r="18.38" fill="hsl(225 34% 16%)"/>
    <circle cx="136.88" cy="617.24" r="20.42" fill="hsl(225 34% 17%)"/>
  </g><g>
    <rect x="982.94" y="601.77" width="9.22" height="52.23" fill="hsl(225 30% 14%)"/>
    <circle cx="987.5481365807354" cy="583.33" r="39.94" fill="hsl(225 34% 18%)"/>
    <circle cx="959.9" cy="601.77" r="27.65" fill="hsl(225 34% 16%)"/>
    <circle cx="1012.13" cy="598.69" r="30.73" fill="hsl(225 34% 17%)"/>
  </g>
  

  <rect width="1200" height="900" fill="url(#g_celestiapenthousec_grain)"/>
  <rect width="1200" height="900" fill="url(#g_celestiapenthousec_vig)"/>
</svg>