<svg xmlns="http://www.w3.org/2000/svg" viewBox="0 0 1200 900" width="1200" height="900" role="img">
  <defs>
    <linearGradient id="g_palmagroveb_sky" x1="0" y1="0" x2="0" y2="1">
      <stop offset="0" stop-color="hsl(200 30% 88%)"/>
      <stop offset="1" stop-color="hsl(46 40% 97%)"/>
    </linearGradient>
    <radialGradient id="g_palmagroveb_sun" cx="0.34" cy="0.22" r="0.5">
      <stop offset="0" stop-color="hsl(46 70% 92% / 0.95)"/>
      <stop offset="0.4" stop-color="hsl(46 70% 92% / 0.35)"/>
      <stop offset="1" stop-color="hsl(46 70% 92% / 0)"/>
    </radialGradient>
    <linearGradient id="g_palmagroveb_vig" x1="0" y1="0" x2="0" y2="1">
      <stop offset="0" stop-color="hsl(0 0% 0% / 0.18)"/>
      <stop offset="0.35" stop-color="hsl(0 0% 0% / 0)"/>
      <stop offset="1" stop-color="hsl(76 40% 6% / 0.35)"/>
    </linearGradient>
    <pattern id="g_palmagroveb_grain" width="4" height="4" patternUnits="userSpaceOnUse">
      <rect width="4" height="4" fill="hsl(0 0% 100% / 0)"/>
      <circle cx="1" cy="1" r="0.5" fill="hsl(0 0% 100% / 0.05)"/>
    </pattern>
  </defs>

  <rect width="1200" height="900" fill="url(#g_palmagroveb_sky)"/>
  <rect width="1200" height="900" fill="url(#g_palmagroveb_sun)"/>
  <circle cx="411.14" cy="198" r="46" fill="hsl(46 70% 96% / 0.9)"/>

  <path d="M0,900 L0,478.69 L0,423.54 L200,431.72 L400,463.41 L600,504.28 L800,502.76 L1000,430.36 L1200,421.85 L1200,478.69 L1200,900 Z" fill="hsl(76 24% 30% / 0.9)"/><path d="M0,900 L0,527.1 L0,486.48 L200,513.5 L400,538.45 L600,556 L800,486.47 L1000,474.16 L1200,525.71 L1200,527.1 L1200,900 Z" fill="hsl(76 24% 25% / 0.9)"/><path d="M0,900 L0,576.53 L0,547.38 L200,594.78 L400,588.15 L600,563.26 L800,530.62 L1000,555.98 L1200,596.82 L1200,576.53 L1200,900 Z" fill="hsl(76 24% 20% / 0.9)"/>
  <rect x="0" y="648" width="1200" height="252" fill="hsl(76 26% 12%)"/>
  <g><rect x="394.43" y="491.5" width="448.37" height="156.5" fill="hsl(76 24% 13%)"/><rect x="461.79" y="381.13" width="224.19" height="110.37" fill="hsl(76 22% 16%)"/><rect x="376.43" y="483.5" width="484.37" height="8" fill="hsl(76 30% 22%)"/><rect x="408.43" y="505.5" width="72.87" height="57.25" rx="2" fill="hsl(45 30% 40% / 0.5)"/><rect x="408.43" y="576.75" width="72.87" height="57.25" rx="2" fill="hsl(45 30% 40% / 0.5)"/><rect x="495.3" y="505.5" width="72.87" height="57.25" rx="2" fill="hsl(45 30% 40% / 0.5)"/><rect x="495.3" y="576.75" width="72.87" height="57.25" rx="2" fill="hsl(45 30% 40% / 0.5)"/><rect x="582.18" y="505.5" width="72.87" height="57.25" rx="2" fill="hsl(45 30% 40% / 0.5)"/><rect x="582.18" y="576.75" width="72.87" height="57.25" rx="2" fill="hsl(45 30% 40% / 0.5)"/><rect x="669.05" y="505.5" width="72.87" height="57.25" rx="2" fill="hsl(45 30% 40% / 0.5)"/><rect x="669.05" y="576.75" width="72.87" height="57.25" rx="2" fill="hsl(45 30% 40% / 0.5)"/><rect x="755.93" y="505.5" width="72.87" height="57.25" rx="2" fill="hsl(45 30% 40% / 0.5)"/><rect x="755.93" y="576.75" width="72.87" height="57.25" rx="2" fill="hsl(45 30% 40% / 0.5)"/><rect x="475.79" y="395.13" width="91.09" height="34.18" rx="2" fill="hsl(45 30% 40% / 0.5)"/><rect x="475.79" y="443.31" width="91.09" height="34.18" rx="2" fill="hsl(45 30% 40% / 0.5)"/><rect x="580.88" y="395.13" width="91.09" height="34.18" rx="2" fill="hsl(45 30% 40% / 0.5)"/><rect x="580.88" y="443.31" width="91.09" height="34.18" rx="2" fill="hsl(45 30% 40% / 0.5)"/></g>
  <path d="M129.3239094223827,654 q6.878472505509854,-45.85648337006569 2.2928241685032846,-91.71296674013138" stroke="hsl(76 30% 14%)" stroke-width="4.585648337006569" fill="none" stroke-linecap="round"/><path d="M131.62,562.29 Q124.32,541.65 119.32,517.34" stroke="hsl(76 34% 20%)" stroke-width="2.98067141905427" fill="none" stroke-linecap="round"/><path d="M131.62,562.29 Q138.09,541.65 146.86,517.84" stroke="hsl(76 34% 20%)" stroke-width="2.98067141905427" fill="none" stroke-linecap="round"/><path d="M131.62,562.29 Q150.35,541.65 171.38,527.14" stroke="hsl(76 34% 20%)" stroke-width="2.98067141905427" fill="none" stroke-linecap="round"/><path d="M131.62,562.29 Q158.68,541.65 188.03,543.4" stroke="hsl(76 34% 20%)" stroke-width="2.98067141905427" fill="none" stroke-linecap="round"/><path d="M131.62,562.29 Q161.41,541.65 193.5,563.41" stroke="hsl(76 34% 20%)" stroke-width="2.98067141905427" fill="none" stroke-linecap="round"/><path d="M131.62,562.29 Q158.02,541.65 186.72,583.19" stroke="hsl(76 34% 20%)" stroke-width="2.98067141905427" fill="none" stroke-linecap="round"/><path d="M131.62,562.29 Q149.17,541.65 169.02,598.83" stroke="hsl(76 34% 20%)" stroke-width="2.98067141905427" fill="none" stroke-linecap="round"/><path d="M988.0998862534761,654 q8.493684527277948,-56.62456351518632 2.831228175759316,-113.24912703037263" stroke="hsl(76 30% 14%)" stroke-width="5.662456351518632" fill="none" stroke-linecap="round"/><path d="M990.93,540.75 Q981.92,515.27 975.74,485.26" stroke="hsl(76 34% 20%)" stroke-width="3.6805966284871108" fill="none" stroke-linecap="round"/><path d="M990.93,540.75 Q998.93,515.27 1009.75,485.87" stroke="hsl(76 34% 20%)" stroke-width="3.6805966284871108" fill="none" stroke-linecap="round"/><path d="M990.93,540.75 Q1014.07,515.27 1040.04,497.35" stroke="hsl(76 34% 20%)" stroke-width="3.6805966284871108" fill="none" stroke-linecap="round"/><path d="M990.93,540.75 Q1024.35,515.27 1060.59,517.43" stroke="hsl(76 34% 20%)" stroke-width="3.6805966284871108" fill="none" stroke-linecap="round"/><path d="M990.93,540.75 Q1027.73,515.27 1067.35,542.13" stroke="hsl(76 34% 20%)" stroke-width="3.6805966284871108" fill="none" stroke-linecap="round"/><path d="M990.93,540.75 Q1023.54,515.27 1058.97,566.56" stroke="hsl(76 34% 20%)" stroke-width="3.6805966284871108" fill="none" stroke-linecap="round"/><path d="M990.93,540.75 Q1012.61,515.27 1037.12,585.87" stroke="hsl(76 34% 20%)" stroke-width="3.6805966284871108" fill="none" stroke-linecap="round"/><path d="M1042.0602048374712,654 q5.860197960957885,-39.0679864063859 1.953399320319295,-78.1359728127718" stroke="hsl(76 30% 14%)" stroke-width="3.90679864063859" fill="none" stroke-linecap="round"/><path d="M1044.01,575.86 Q1037.8,558.28 1033.54,537.57" stroke="hsl(76 34% 20%)" stroke-width="2.5394191164150834" fill="none" stroke-linecap="round"/><path d="M1044.01,575.86 Q1049.53,558.28 1057,538" stroke="hsl(76 34% 20%)" stroke-width="2.5394191164150834" fill="none" stroke-linecap="round"/><path d="M1044.01,575.86 Q1059.98,558.28 1077.89,545.92" stroke="hsl(76 34% 20%)" stroke-width="2.5394191164150834" fill="none" stroke-linecap="round"/><path d="M1044.01,575.86 Q1067.07,558.28 1092.08,559.78" stroke="hsl(76 34% 20%)" stroke-width="2.5394191164150834" fill="none" stroke-linecap="round"/><path d="M1044.01,575.86 Q1069.4,558.28 1096.74,576.82" stroke="hsl(76 34% 20%)" stroke-width="2.5394191164150834" fill="none" stroke-linecap="round"/><path d="M1044.01,575.86 Q1066.51,558.28 1090.96,593.67" stroke="hsl(76 34% 20%)" stroke-width="2.5394191164150834" fill="none" stroke-linecap="round"/><path d="M1044.01,575.86 Q1058.97,558.28 1075.88,606.99" stroke="hsl(76 34% 20%)" stroke-width="2.5394191164150834" fill="none" stroke-linecap="round"/><path d="M239.31589869316667,654 q9.925965846329929,-66.17310564219952 3.308655282109976,-132.34621128439903" stroke="hsl(76 30% 14%)" stroke-width="6.617310564219952" fill="none" stroke-linecap="round"/><path d="M242.62,521.65 Q232.1,491.88 224.88,456.8" stroke="hsl(76 34% 20%)" stroke-width="4.3012518667429696" fill="none" stroke-linecap="round"/><path d="M242.62,521.65 Q251.97,491.88 264.62,457.52" stroke="hsl(76 34% 20%)" stroke-width="4.3012518667429696" fill="none" stroke-linecap="round"/><path d="M242.62,521.65 Q269.66,491.88 300.01,470.94" stroke="hsl(76 34% 20%)" stroke-width="4.3012518667429696" fill="none" stroke-linecap="round"/><path d="M242.62,521.65 Q281.67,491.88 324.03,494.41" stroke="hsl(76 34% 20%)" stroke-width="4.3012518667429696" fill="none" stroke-linecap="round"/><path d="M242.62,521.65 Q285.62,491.88 331.93,523.27" stroke="hsl(76 34% 20%)" stroke-width="4.3012518667429696" fill="none" stroke-linecap="round"/><path d="M242.62,521.65 Q280.73,491.88 322.14,551.81" stroke="hsl(76 34% 20%)" stroke-width="4.3012518667429696" fill="none" stroke-linecap="round"/><path d="M242.62,521.65 Q267.96,491.88 296.6,574.38" stroke="hsl(76 34% 20%)" stroke-width="4.3012518667429696" fill="none" stroke-linecap="round"/>
  <g>
    <rect x="0" y="656" width="1200" height="244" fill="hsl(76 30% 10%)"/>
    <ellipse cx="600" cy="726" rx="504" ry="70" fill="hsl(76 45% 30% / 0.9)"/>
    <rect x="192" y="690" width="816" height="10" fill="hsl(46 70% 70% / 0.55)" opacity="0.7"/>
    <rect x="264" y="720" width="672" height="6" fill="hsl(46 70% 70% / 0.55)" opacity="0.5"/>
  </g>

  <rect width="1200" height="900" fill="url(#g_palmagroveb_grain)"/>
  <rect width="1200" height="900" fill="url(#g_palmagroveb_vig)"/>
</svg>