<svg xmlns="http://www.w3.org/2000/svg" viewBox="0 0 1200 900" width="1200" height="900" role="img">
  <defs>
    <linearGradient id="g_serenevillab_sky" x1="0" y1="0" x2="0" y2="1">
      <stop offset="0" stop-color="hsl(200 30% 88%)"/>
      <stop offset="1" stop-color="hsl(46 40% 97%)"/>
    </linearGradient>
    <radialGradient id="g_serenevillab_sun" cx="0.72" cy="0.22" r="0.5">
      <stop offset="0" stop-color="hsl(46 70% 92% / 0.95)"/>
      <stop offset="0.4" stop-color="hsl(46 70% 92% / 0.35)"/>
      <stop offset="1" stop-color="hsl(46 70% 92% / 0)"/>
    </radialGradient>
    <linearGradient id="g_serenevillab_vig" x1="0" y1="0" x2="0" y2="1">
      <stop offset="0" stop-color="hsl(0 0% 0% / 0.18)"/>
      <stop offset="0.35" stop-color="hsl(0 0% 0% / 0)"/>
      <stop offset="1" stop-color="hsl(158 40% 6% / 0.35)"/>
    </linearGradient>
    <pattern id="g_serenevillab_grain" width="4" height="4" patternUnits="userSpaceOnUse">
      <rect width="4" height="4" fill="hsl(0 0% 100% / 0)"/>
      <circle cx="1" cy="1" r="0.5" fill="hsl(0 0% 100% / 0.05)"/>
    </pattern>
  </defs>

  <rect width="1200" height="900" fill="url(#g_serenevillab_sky)"/>
  <rect width="1200" height="900" fill="url(#g_serenevillab_sun)"/>
  <circle cx="862.6" cy="198" r="46" fill="hsl(46 70% 96% / 0.9)"/>

  <path d="M0,900 L0,467.42 L0,420.63 L200,419.95 L400,432.36 L600,495.75 L800,472.3 L1000,437.13 L1200,420.01 L1200,467.42 L1200,900 Z" fill="hsl(158 24% 30% / 0.9)"/><path d="M0,900 L0,511.29 L0,466.5 L200,477.1 L400,546.12 L600,523.85 L800,470.66 L1000,462.16 L1200,476.75 L1200,511.29 L1200,900 Z" fill="hsl(158 24% 25% / 0.9)"/><path d="M0,900 L0,589.31 L0,560.36 L200,591.62 L400,601.78 L600,564.2 L800,551.08 L1000,575.4 L1200,614.12 L1200,589.31 L1200,900 Z" fill="hsl(158 24% 20% / 0.9)"/>
  <rect x="0" y="648" width="1200" height="252" fill="hsl(158 26% 12%)"/>
  <g><rect x="385.56" y="486.58" width="425.4" height="161.42" fill="hsl(158 24% 13%)"/><rect x="496.57" y="365.23" width="212.7" height="121.35" fill="hsl(158 22% 16%)"/><rect x="367.56" y="478.58" width="461.4" height="8" fill="hsl(158 30% 22%)"/><rect x="399.56" y="500.58" width="68.28" height="59.71" rx="2" fill="hsl(45 30% 40% / 0.5)"/><rect x="399.56" y="574.29" width="68.28" height="59.71" rx="2" fill="hsl(45 30% 40% / 0.5)"/><rect x="481.84" y="500.58" width="68.28" height="59.71" rx="2" fill="hsl(45 30% 40% / 0.5)"/><rect x="481.84" y="574.29" width="68.28" height="59.71" rx="2" fill="hsl(45 30% 40% / 0.5)"/><rect x="564.12" y="500.58" width="68.28" height="59.71" rx="2" fill="hsl(45 30% 40% / 0.5)"/><rect x="564.12" y="574.29" width="68.28" height="59.71" rx="2" fill="hsl(45 30% 40% / 0.5)"/><rect x="646.4" y="500.58" width="68.28" height="59.71" rx="2" fill="hsl(45 30% 40% / 0.5)"/><rect x="646.4" y="574.29" width="68.28" height="59.71" rx="2" fill="hsl(45 30% 40% / 0.5)"/><rect x="728.68" y="500.58" width="68.28" height="59.71" rx="2" fill="hsl(45 30% 40% / 0.5)"/><rect x="728.68" y="574.29" width="68.28" height="59.71" rx="2" fill="hsl(45 30% 40% / 0.5)"/><rect x="510.57" y="379.23" width="85.35" height="39.67" rx="2" fill="hsl(45 30% 40% / 0.5)"/><rect x="510.57" y="432.91" width="85.35" height="39.67" rx="2" fill="hsl(45 30% 40% / 0.5)"/><rect x="609.92" y="379.23" width="85.35" height="39.67" rx="2" fill="hsl(45 30% 40% / 0.5)"/><rect x="609.92" y="432.91" width="85.35" height="39.67" rx="2" fill="hsl(45 30% 40% / 0.5)"/></g>
  <g>
    <rect x="942.94" y="603.83" width="8.85" height="50.17" fill="hsl(158 30% 14%)"/>
    <circle cx="947.3664925061166" cy="586.12" r="38.37" fill="hsl(158 34% 18%)"/>
    <circle cx="920.81" cy="603.83" r="26.56" fill="hsl(158 34% 16%)"/>
    <circle cx="970.98" cy="600.88" r="29.51" fill="hsl(158 34% 17%)"/>
  </g><g>
    <rect x="957.02" y="609.4" width="7.87" height="44.6" fill="hsl(158 30% 14%)"/>
    <circle cx="960.9562950301915" cy="593.66" r="34.11" fill="hsl(158 34% 18%)"/>
    <circle cx="937.34" cy="609.4" r="23.61" fill="hsl(158 34% 16%)"/>
    <circle cx="981.94" cy="606.78" r="26.24" fill="hsl(158 34% 17%)"/>
  </g><g>
    <rect x="156.48" y="621.87" width="5.67" height="32.13" fill="hsl(158 30% 14%)"/>
    <circle cx="159.316190876998" cy="610.53" r="24.57" fill="hsl(158 34% 18%)"/>
    <circle cx="142.31" cy="621.87" r="17.01" fill="hsl(158 34% 16%)"/>
    <circle cx="174.44" cy="619.98" r="18.9" fill="hsl(158 34% 17%)"/>
  </g>
  <g>
    <rect x="0" y="656" width="1200" height="244" fill="hsl(158 30% 10%)"/>
    <ellipse cx="600" cy="726" rx="504" ry="70" fill="hsl(158 45% 30% / 0.9)"/>
    <rect x="192" y="690" width="816" height="10" fill="hsl(46 70% 70% / 0.55)" opacity="0.7"/>
    <rect x="264" y="720" width="672" height="6" fill="hsl(46 70% 70% / 0.55)" opacity="0.5"/>
  </g>

  <rect width="1200" height="900" fill="url(#g_serenevillab_grain)"/>
  <rect width="1200" height="900" fill="url(#g_serenevillab_vig)"/>
</svg>