<svg xmlns="http://www.w3.org/2000/svg" viewBox="0 0 1200 900" width="1200" height="900" role="img">
  <defs>
    <linearGradient id="g_skylinecrowna_sky" x1="0" y1="0" x2="0" y2="1">
      <stop offset="0" stop-color="hsl(42 62% 92%)"/>
      <stop offset="1" stop-color="hsl(40 30% 96%)"/>
    </linearGradient>
    <radialGradient id="g_skylinecrowna_sun" cx="0.68" cy="0.34" r="0.5">
      <stop offset="0" stop-color="hsl(44 85% 82% / 0.95)"/>
      <stop offset="0.4" stop-color="hsl(44 85% 82% / 0.35)"/>
      <stop offset="1" stop-color="hsl(44 85% 82% / 0)"/>
    </radialGradient>
    <linearGradient id="g_skylinecrowna_vig" x1="0" y1="0" x2="0" y2="1">
      <stop offset="0" stop-color="hsl(0 0% 0% / 0.18)"/>
      <stop offset="0.35" stop-color="hsl(0 0% 0% / 0)"/>
      <stop offset="1" stop-color="hsl(205 40% 6% / 0.35)"/>
    </linearGradient>
    <pattern id="g_skylinecrowna_grain" width="4" height="4" patternUnits="userSpaceOnUse">
      <rect width="4" height="4" fill="hsl(0 0% 100% / 0)"/>
      <circle cx="1" cy="1" r="0.5" fill="hsl(0 0% 100% / 0.05)"/>
    </pattern>
  </defs>

  <rect width="1200" height="900" fill="url(#g_skylinecrowna_sky)"/>
  <rect width="1200" height="900" fill="url(#g_skylinecrowna_sun)"/>
  <circle cx="820.02" cy="306" r="46" fill="hsl(44 85% 90% / 0.9)"/>

  <path d="M0,900 L0,462.54 L0,414.77 L200,406.94 L400,468.62 L600,500.58 L800,492.08 L1000,442.49 L1200,416.28 L1200,462.54 L1200,900 Z" fill="hsl(205 24% 30% / 0.9)"/><path d="M0,900 L0,529.54 L0,479.79 L200,516.29 L400,547.85 L600,547.54 L800,504.5 L1000,490.99 L1200,507.78 L1200,529.54 L1200,900 Z" fill="hsl(205 24% 25% / 0.9)"/><path d="M0,900 L0,591.85 L0,569.81 L200,602.68 L400,597.62 L600,571.47 L800,559.29 L1000,570.77 L1200,607.83 L1200,591.85 L1200,900 Z" fill="hsl(205 24% 20% / 0.9)"/>
  
  <g><rect x="466.7" y="253.45" width="188.57" height="394.55" fill="hsl(205 22% 12%)"/><rect x="480.7" y="267.45" width="29.64" height="28.28" rx="2" fill="hsl(45 90% 72% / 0.92)"/><rect x="480.7" y="309.73" width="29.64" height="28.28" rx="2" fill="hsl(45 90% 72% / 0.92)"/><rect x="480.7" y="352.01" width="29.64" height="28.28" rx="2" fill="hsl(45 90% 72% / 0.92)"/><rect x="480.7" y="394.3" width="29.64" height="28.28" rx="2" fill="hsl(45 90% 72% / 0.92)"/><rect x="480.7" y="436.58" width="29.64" height="28.28" rx="2" fill="hsl(45 90% 72% / 0.92)"/><rect x="480.7" y="478.87" width="29.64" height="28.28" rx="2" fill="hsl(45 90% 72% / 0.92)"/><rect x="480.7" y="521.15" width="29.64" height="28.28" rx="2" fill="hsl(45 90% 72% / 0.92)"/><rect x="480.7" y="563.43" width="29.64" height="28.28" rx="2" fill="hsl(45 90% 72% / 0.92)"/><rect x="480.7" y="605.72" width="29.64" height="28.28" rx="2" fill="hsl(45 90% 72% / 0.92)"/><rect x="524.34" y="267.45" width="29.64" height="28.28" rx="2" fill="hsl(45 90% 72% / 0.92)"/><rect x="524.34" y="309.73" width="29.64" height="28.28" rx="2" fill="hsl(45 90% 72% / 0.92)"/><rect x="524.34" y="352.01" width="29.64" height="28.28" rx="2" fill="hsl(45 90% 72% / 0.92)"/><rect x="524.34" y="394.3" width="29.64" height="28.28" rx="2" fill="hsl(45 90% 72% / 0.92)"/><rect x="524.34" y="436.58" width="29.64" height="28.28" rx="2" fill="hsl(45 90% 72% / 0.92)"/><rect x="524.34" y="478.87" width="29.64" height="28.28" rx="2" fill="hsl(45 90% 72% / 0.92)"/><rect x="524.34" y="521.15" width="29.64" height="28.28" rx="2" fill="hsl(45 90% 72% / 0.92)"/><rect x="524.34" y="563.43" width="29.64" height="28.28" rx="2" fill="hsl(45 90% 72% / 0.92)"/><rect x="524.34" y="605.72" width="29.64" height="28.28" rx="2" fill="hsl(45 90% 72% / 0.92)"/><rect x="567.98" y="267.45" width="29.64" height="28.28" rx="2" fill="hsl(45 90% 72% / 0.92)"/><rect x="567.98" y="309.73" width="29.64" height="28.28" rx="2" fill="hsl(45 90% 72% / 0.92)"/><rect x="567.98" y="352.01" width="29.64" height="28.28" rx="2" fill="hsl(45 90% 72% / 0.92)"/><rect x="567.98" y="394.3" width="29.64" height="28.28" rx="2" fill="hsl(45 90% 72% / 0.92)"/><rect x="567.98" y="436.58" width="29.64" height="28.28" rx="2" fill="hsl(45 90% 72% / 0.92)"/><rect x="567.98" y="478.87" width="29.64" height="28.28" rx="2" fill="hsl(45 90% 72% / 0.92)"/><rect x="567.98" y="521.15" width="29.64" height="28.28" rx="2" fill="hsl(45 90% 72% / 0.92)"/><rect x="567.98" y="563.43" width="29.64" height="28.28" rx="2" fill="hsl(45 90% 72% / 0.92)"/><rect x="567.98" y="605.72" width="29.64" height="28.28" rx="2" fill="hsl(45 90% 72% / 0.92)"/><rect x="611.62" y="267.45" width="29.64" height="28.28" rx="2" fill="hsl(45 90% 72% / 0.92)"/><rect x="611.62" y="309.73" width="29.64" height="28.28" rx="2" fill="hsl(45 90% 72% / 0.92)"/><rect x="611.62" y="352.01" width="29.64" height="28.28" rx="2" fill="hsl(45 90% 72% / 0.92)"/><rect x="611.62" y="394.3" width="29.64" height="28.28" rx="2" fill="hsl(45 90% 72% / 0.92)"/><rect x="611.62" y="436.58" width="29.64" height="28.28" rx="2" fill="hsl(45 90% 72% / 0.92)"/><rect x="611.62" y="478.87" width="29.64" height="28.28" rx="2" fill="hsl(45 90% 72% / 0.92)"/><rect x="611.62" y="521.15" width="29.64" height="28.28" rx="2" fill="hsl(45 90% 72% / 0.92)"/><rect x="611.62" y="563.43" width="29.64" height="28.28" rx="2" fill="hsl(45 90% 72% / 0.92)"/><rect x="611.62" y="605.72" width="29.64" height="28.28" rx="2" fill="hsl(45 90% 72% / 0.92)"/><rect x="336.7" y="418" width="110" height="230" fill="hsl(205 20% 10%)"/><rect x="350.7" y="432" width="18" height="22" rx="2" fill="hsl(45 90% 72% / 0.92)"/><rect x="350.7" y="468" width="18" height="22" rx="2" fill="hsl(45 90% 72% / 0.92)"/><rect x="350.7" y="504" width="18" height="22" rx="2" fill="hsl(45 90% 72% / 0.92)"/><rect x="350.7" y="540" width="18" height="22" rx="2" fill="hsl(45 90% 72% / 0.92)"/><rect x="350.7" y="576" width="18" height="22" rx="2" fill="hsl(45 90% 72% / 0.92)"/><rect x="350.7" y="612" width="18" height="22" rx="2" fill="hsl(45 90% 72% / 0.92)"/><rect x="382.7" y="432" width="18" height="22" rx="2" fill="hsl(45 90% 72% / 0.92)"/><rect x="382.7" y="468" width="18" height="22" rx="2" fill="hsl(45 90% 72% / 0.92)"/><rect x="382.7" y="504" width="18" height="22" rx="2" fill="hsl(45 90% 72% / 0.92)"/><rect x="382.7" y="540" width="18" height="22" rx="2" fill="hsl(45 90% 72% / 0.92)"/><rect x="382.7" y="576" width="18" height="22" rx="2" fill="hsl(45 90% 72% / 0.92)"/><rect x="382.7" y="612" width="18" height="22" rx="2" fill="hsl(45 90% 72% / 0.92)"/><rect x="414.7" y="432" width="18" height="22" rx="2" fill="hsl(45 90% 72% / 0.92)"/><rect x="414.7" y="468" width="18" height="22" rx="2" fill="hsl(45 90% 72% / 0.92)"/><rect x="414.7" y="504" width="18" height="22" rx="2" fill="hsl(45 90% 72% / 0.92)"/><rect x="414.7" y="540" width="18" height="22" rx="2" fill="hsl(45 90% 72% / 0.92)"/><rect x="414.7" y="576" width="18" height="22" rx="2" fill="hsl(45 90% 72% / 0.92)"/><rect x="414.7" y="612" width="18" height="22" rx="2" fill="hsl(45 90% 72% / 0.92)"/><rect x="675.26" y="368" width="120" height="280" fill="hsl(205 20% 11%)"/><rect x="689.26" y="382" width="21.33" height="24" rx="2" fill="hsl(45 90% 72% / 0.92)"/><rect x="689.26" y="420" width="21.33" height="24" rx="2" fill="hsl(45 90% 72% / 0.92)"/><rect x="689.26" y="458" width="21.33" height="24" rx="2" fill="hsl(45 90% 72% / 0.92)"/><rect x="689.26" y="496" width="21.33" height="24" rx="2" fill="hsl(45 90% 72% / 0.92)"/><rect x="689.26" y="534" width="21.33" height="24" rx="2" fill="hsl(45 90% 72% / 0.92)"/><rect x="689.26" y="572" width="21.33" height="24" rx="2" fill="hsl(45 90% 72% / 0.92)"/><rect x="689.26" y="610" width="21.33" height="24" rx="2" fill="hsl(45 90% 72% / 0.92)"/><rect x="724.6" y="382" width="21.33" height="24" rx="2" fill="hsl(45 90% 72% / 0.92)"/><rect x="724.6" y="420" width="21.33" height="24" rx="2" fill="hsl(45 90% 72% / 0.92)"/><rect x="724.6" y="458" width="21.33" height="24" rx="2" fill="hsl(45 90% 72% / 0.92)"/><rect x="724.6" y="496" width="21.33" height="24" rx="2" fill="hsl(45 90% 72% / 0.92)"/><rect x="724.6" y="534" width="21.33" height="24" rx="2" fill="hsl(45 90% 72% / 0.92)"/><rect x="724.6" y="572" width="21.33" height="24" rx="2" fill="hsl(45 90% 72% / 0.92)"/><rect x="724.6" y="610" width="21.33" height="24" rx="2" fill="hsl(45 90% 72% / 0.92)"/><rect x="759.93" y="382" width="21.33" height="24" rx="2" fill="hsl(45 90% 72% / 0.92)"/><rect x="759.93" y="420" width="21.33" height="24" rx="2" fill="hsl(45 90% 72% / 0.92)"/><rect x="759.93" y="458" width="21.33" height="24" rx="2" fill="hsl(45 90% 72% / 0.92)"/><rect x="759.93" y="496" width="21.33" height="24" rx="2" fill="hsl(45 90% 72% / 0.92)"/><rect x="759.93" y="534" width="21.33" height="24" rx="2" fill="hsl(45 90% 72% / 0.92)"/><rect x="759.93" y="572" width="21.33" height="24" rx="2" fill="hsl(45 90% 72% / 0.92)"/><rect x="759.93" y="610" width="21.33" height="24" rx="2" fill="hsl(45 90% 72% / 0.92)"/></g>
  <g>
    <rect x="178.99" y="609.63" width="7.83" height="44.37" fill="hsl(205 30% 14%)"/>
    <circle cx="182.9069463768974" cy="593.98" r="33.93" fill="hsl(205 34% 18%)"/>
    <circle cx="159.42" cy="609.63" r="23.49" fill="hsl(205 34% 16%)"/>
    <circle cx="203.78" cy="607.02" r="26.1" fill="hsl(205 34% 17%)"/>
  </g><g>
    <rect x="1044.99" y="616.71" width="6.58" height="37.29" fill="hsl(205 30% 14%)"/>
    <circle cx="1048.2796317525208" cy="603.55" r="28.51" fill="hsl(205 34% 18%)"/>
    <circle cx="1028.54" cy="616.71" r="19.74" fill="hsl(205 34% 16%)"/>
    <circle cx="1065.83" cy="614.52" r="21.93" fill="hsl(205 34% 17%)"/>
  </g>
  

  <rect width="1200" height="900" fill="url(#g_skylinecrowna_grain)"/>
  <rect width="1200" height="900" fill="url(#g_skylinecrowna_vig)"/>
</svg>